<?xml version="1.0" standalone="no"?><!DOCTYPE svg PUBLIC "-//W3C//DTD SVG 1.1//EN" "http://www.w3.org/Graphics/SVG/1.1/DTD/svg11.dtd"><svg t="1506046589168" class="icon" style="" viewBox="0 0 1024 1024" version="1.1" xmlns="http://www.w3.org/2000/svg" p-id="1778" xmlns:xlink="http://www.w3.org/1999/xlink" width="150" height="150"><defs><style type="text/css"></style></defs><path d="M787.690476 925.52381 236.319048 925.52381c-21.7 0-39.390476 39.404762-39.390476 39.404762l0 39.380952 630.142857 0 0-39.380952C827.071429 943.209524 809.380952 925.52381 787.690476 925.52381zM905.857143 19.690476 118.152381 19.690476C52.928571 19.690476 0 72.628571 0 137.842857L0 689.238095c0 65.214286 52.928571 118.166667 118.152381 118.166667l275.690476 0 0 39.380952c0 21.714286 17.67619 39.380952 39.380952 39.380952l157.533333 0c21.714286 0 39.404762-20.309524 39.404762-39.380952 0-8.238095 0-24.071429 0-39.380952l275.690476 0c65.214286 0 118.142857-52.928571 118.142857-118.166667L1023.995238 137.842857C1023.995238 72.628571 971.066667 19.690476 905.857143 19.690476zM118.152381 649.857143c-21.7 0-39.380952-17.690476-39.380952-39.380952L78.771429 137.842857c0-21.690476 17.67619-39.380952 39.380952-39.380952L905.857143 98.461905c21.690476 0 39.380952 17.690476 39.380952 39.380952L945.238095 610.47619c0 21.690476-17.690476 39.380952-39.380952 39.380952L118.152381 649.857143zM905.785714 769.452381c-22.5 0-40.738095-18.285714-40.738095-40.857143 0-22.52381 18.261905-40.833333 40.738095-40.833333 22.595238 0 40.857143 18.285714 40.857143 40.833333C946.638095 751.166667 928.380952 769.452381 905.785714 769.452381z" p-id="1779" fill="#26c5ff"></path></svg>