<?xml version="1.0" standalone="no"?><!DOCTYPE svg PUBLIC "-//W3C//DTD SVG 1.1//EN" "http://www.w3.org/Graphics/SVG/1.1/DTD/svg11.dtd"><svg t="1503300811986" class="icon" style="" viewBox="0 0 1024 1024" version="1.1" xmlns="http://www.w3.org/2000/svg" p-id="756" xmlns:xlink="http://www.w3.org/1999/xlink" width="200" height="200"><defs><style type="text/css"></style></defs><path d="M0.438857 1.243429H1024v227.254857H0.438857V1.243429zM0.438857 445.659429H202.605714v571.538285H0.438857V445.659429zM274.285714 445.659429h202.093715v571.538285H274.212571zM548.059429 445.659429h202.093714v571.538285H548.059429V445.659429zM821.833143 445.659429H1024v571.538285h-202.166857zM74.24 240.420571h52.516571v50.980572h-52.516571zM74.24 308.662857h52.516571v51.053714h-52.516571zM74.24 375.076571h52.516571v50.980572h-52.516571zM349.037714 240.420571h52.516572v50.980572h-52.516572zM349.037714 308.662857h52.516572v51.053714h-52.516572zM349.037714 375.076571h52.516572v50.980572h-52.516572zM623.908571 240.420571h52.443429v50.980572H623.908571zM623.908571 308.662857h52.443429v51.053714H623.908571zM623.908571 375.076571h52.443429v50.980572H623.908571zM898.633143 240.420571h52.516571v50.980572h-52.516571zM898.633143 308.662857h52.516571v51.053714h-52.516571zM898.633143 375.076571h52.516571v50.980572h-52.516571z" p-id="757" fill="#1296db"></path><path d="M74.24 445.659429h52.516571v50.980571h-52.516571zM349.037714 445.659429h52.516572v50.980571h-52.516572zM623.908571 445.659429h52.443429v50.980571H623.908571zM898.633143 445.659429h52.516571v50.980571h-52.516571z" p-id="758" fill="#1296db"></path></svg>