<?xml version="1.0" standalone="no"?><!DOCTYPE svg PUBLIC "-//W3C//DTD SVG 1.1//EN" "http://www.w3.org/Graphics/SVG/1.1/DTD/svg11.dtd"><svg t="1506050489707" class="icon" style="" viewBox="0 0 1025 1024" version="1.1" xmlns="http://www.w3.org/2000/svg" p-id="3388" xmlns:xlink="http://www.w3.org/1999/xlink" width="128.125" height="128"><defs><style type="text/css"></style></defs><path d="M866.176 662.144c-20.864 0-40.704 4.352-59.008 11.776L613.184 323.712c34.304-29.376 56.64-72.704 56.64-121.856 0-88.384-70.656-160-157.824-160s-157.824 71.616-157.824 160c0 40.704 15.424 77.376 40.128 105.664l-198.528 359.808c-12.224-3.072-24.832-5.184-37.952-5.184-87.168 0-157.824 71.616-157.824 160s70.656 160 157.824 160c78.016 0 142.336-57.472 155.136-132.864l398.144 0c12.8 75.392 77.12 132.864 155.136 132.864 87.168 0 157.824-71.616 157.824-160S953.344 662.144 866.176 662.144zM445.376 346.432C465.664 356.096 488.128 361.856 512 361.856c15.936 0 30.976-3.136 45.504-7.552l196.736 355.136c-20.096 20.544-34.432 46.72-41.216 75.84L310.976 785.28c-8.512-36.544-29.504-67.968-58.048-90.048L445.376 346.432z" p-id="3389" fill="#34c6fd"></path></svg>