<?xml version="1.0" standalone="no"?><!DOCTYPE svg PUBLIC "-//W3C//DTD SVG 1.1//EN" "http://www.w3.org/Graphics/SVG/1.1/DTD/svg11.dtd"><svg t="1503300916174" class="icon" style="" viewBox="0 0 1024 1024" version="1.1" xmlns="http://www.w3.org/2000/svg" p-id="1886" xmlns:xlink="http://www.w3.org/1999/xlink" width="200" height="200"><defs><style type="text/css"></style></defs><path d="M512 902.095238c-39.009524 0-336.457143-131.657143-336.457143-321.828571v-326.704762h19.504762s53.638095 0 141.409524-39.009524c92.647619-34.133333 151.161905-78.019048 151.161905-78.019048l24.380952-14.628571 24.380952 14.628571s58.514286 43.885714 151.161905 78.019048c87.771429 34.133333 156.038095 39.009524 156.038095 39.009524h4.876191v326.704762c0 190.171429-302.32381 321.828571-336.457143 321.828571z m78.019048-497.371428c-29.257143-29.257143-68.266667-39.009524-117.028572-39.009524h-87.771428v312.07619h82.895238c48.761905 0 87.771429-14.628571 117.028571-43.885714 29.257143-29.257143 43.885714-68.266667 43.885714-117.028572 4.87619-48.761905-9.752381-82.895238-39.009523-112.15238z m-102.4 199.923809h-29.257143v-175.542857h29.257143c24.380952 0 43.885714 4.87619 53.638095 19.504762 14.628571 14.628571 19.504762 34.133333 19.504762 63.390476 0 29.257143-4.87619 48.761905-19.504762 63.390476-9.752381 24.380952-29.257143 29.257143-53.638095 29.257143z" fill="#37BBEF" p-id="1887"></path></svg>