<?xml version="1.0" standalone="no"?><!DOCTYPE svg PUBLIC "-//W3C//DTD SVG 1.1//EN" "http://www.w3.org/Graphics/SVG/1.1/DTD/svg11.dtd"><svg t="1506046670888" class="icon" style="" viewBox="0 0 1024 1024" version="1.1" xmlns="http://www.w3.org/2000/svg" p-id="2797" xmlns:xlink="http://www.w3.org/1999/xlink" width="150" height="150"><defs><style type="text/css"></style></defs><path d="M416.62464 48.35328c0 0 18.59584 8.68352 35.10272 41.71776s9.91232 109.03552 4.13696 121.42592-33.87392 88.39168-77.66016 60.29312-71.04512-5.77536-71.04512-5.77536 28.91776 6.61504 32.21504 35.51232c3.29728 28.91776-1.65888 65.26976-32.21504 81.77664-30.55616 16.52736-55.33696 72.704-43.78624 106.55744 11.5712 33.87392 30.55616 53.69856 51.22048 61.952l97.6896 0c0 0-6.20544-58.04032 27.87328-102.01088 34.07872-43.99104 61.952-58.24512 65.04448-132.58752 0 0 21.07392 14.25408 27.25888 42.12736 6.20544 27.87328-1.24928 60.7232-19.82464 85.504-18.59584 24.7808 3.05152 76.20608 21.97504 76.82048 18.92352 0.6144 45.568 10.52672 61.66528-57.61024 0 0 19.21024-3.09248 27.87328 34.69312s8.04864 53.08416 8.04864 53.08416l137.54368 0c0 0-26.03008-97.05472-73.1136-144.15872 0 0-9.91232 6.20544 0.6144-62.5664 10.52672-68.77184 23.552-97.25952-10.52672-133.81632s-45.21984-30.98624-45.21984-30.98624-55.13216 83.02592-72.47872 83.64032c0 0 30.98624-52.65408 11.776-128.86016S455.02464 24.18688 416.62464 48.35328z" p-id="2798" fill="#26c5ff"></path><path d="M383.16032 702.1568c0 31.92832-26.13248 58.0608-58.0608 58.0608L99.84 760.2176c-31.92832 0-58.0608-26.13248-58.0608-58.0608l0-75.32544c0-31.92832 26.13248-58.0608 58.0608-58.0608l225.25952 0c31.92832 0 58.0608 26.13248 58.0608 58.0608L383.16032 702.1568z" p-id="2799" fill="#26c5ff"></path><path d="M621.07648 925.20448c0 31.92832-26.13248 58.0608-58.0608 58.0608L99.84 983.26528c-31.92832 0-58.0608-26.13248-58.0608-58.0608l0-75.32544c0-31.92832 26.13248-58.0608 58.0608-58.0608l463.17568 0c31.92832 0 58.0608 26.13248 58.0608 58.0608L621.07648 925.20448z" p-id="2800" fill="#26c5ff"></path><path d="M992.80896 925.20448c0 31.92832-26.13248 58.0608-58.0608 58.0608L722.49344 983.26528c-31.92832 0-58.0608-26.13248-58.0608-58.0608l0-75.32544c0-31.92832 26.13248-58.0608 58.0608-58.0608l212.25472 0c31.92832 0 58.0608 26.13248 58.0608 58.0608L992.80896 925.20448z" p-id="2801" fill="#26c5ff"></path><path d="M992.80896 702.1568c0 31.92832-26.13248 58.0608-58.0608 58.0608L456.704 760.2176c-31.92832 0-58.0608-26.13248-58.0608-58.0608l0-75.32544c0-31.92832 26.13248-58.0608 58.0608-58.0608l478.04416 0c31.92832 0 58.0608 26.13248 58.0608 58.0608L992.80896 702.1568z" p-id="2802" fill="#26c5ff"></path></svg>