<?xml version="1.0" standalone="no"?><!DOCTYPE svg PUBLIC "-//W3C//DTD SVG 1.1//EN" "http://www.w3.org/Graphics/SVG/1.1/DTD/svg11.dtd"><svg t="1506049846033" class="icon" style="" viewBox="0 0 1093 1024" version="1.1" xmlns="http://www.w3.org/2000/svg" p-id="12797" xmlns:xlink="http://www.w3.org/1999/xlink" width="136.625" height="128"><defs><style type="text/css"></style></defs><path d="M902.126 904.183h-701.886c-41.921 0-75.877-29.539-75.877-70.414v-81.888c0-40.792 33.956-70.332 75.877-70.332h701.913c41.921 0 75.905 29.539 75.905 70.332v81.888c-0.027 40.874-33.983 70.414-75.933 70.414zM817.349 739.442c-30.243 0-54.93 23.858-54.93 53.396s24.687 53.452 54.93 53.452c30.271 0 54.93-23.941 54.93-53.452 0-29.511-24.631-53.396-54.93-53.396zM902.126 628.29h-701.886c-41.921 0-75.877-29.512-75.877-70.332v-81.943c0-40.793 33.956-70.332 75.877-70.332h701.913c41.921 0 75.905 29.512 75.905 70.332v81.943c-0.027 40.82-33.983 70.332-75.933 70.332zM817.349 463.55c-30.243 0-54.93 23.941-54.93 53.534 0 29.455 24.687 53.48 54.93 53.48 30.271 0 54.93-24.023 54.93-53.48 0.029-29.567-24.631-53.534-54.93-53.534zM902.126 352.618h-701.886c-41.921 0-75.877-29.649-75.877-70.414v-81.834c0-40.874 33.956-70.525 75.877-70.525h701.913c41.921 0 75.905 29.649 75.905 70.525v81.861c-0.027 40.738-33.983 70.387-75.933 70.387zM762.418 241.274c0 29.511 24.687 53.396 54.93 53.396 30.271 0 54.93-23.886 54.93-53.396 0-29.511-24.63-53.452-54.93-53.452-30.243 0-54.93 23.941-54.93 53.452z" p-id="12798" fill="#34c6fd"></path></svg>