<?xml version="1.0" standalone="no"?><!DOCTYPE svg PUBLIC "-//W3C//DTD SVG 1.1//EN" "http://www.w3.org/Graphics/SVG/1.1/DTD/svg11.dtd"><svg t="1506050358600" class="icon" style="" viewBox="0 0 1024 1024" version="1.1" xmlns="http://www.w3.org/2000/svg" p-id="1085" xmlns:xlink="http://www.w3.org/1999/xlink" width="128" height="128"><defs><style type="text/css"></style></defs><path d="M996.8 596.8H27.2c-16 0-27.2 12.8-27.2 27.2v198.4c0 16 12.8 27.2 27.2 27.2h968c16 0 27.2-12.8 27.2-27.2V624c1.6-14.4-11.2-27.2-25.6-27.2zM27.2 561.6h971.2c12.8 0 20.8-12.8 14.4-24l-160-340.8c-3.2-6.4-8-9.6-14.4-9.6H190.4c-6.4 0-12.8 3.2-14.4 9.6L12.8 537.6c-4.8 11.2 3.2 24 14.4 24z m675.2-158.4c0 49.6-60.8 67.2-100.8 67.2h-136v32l-131.2-49.6 134.4-48v25.6h12.8c32 0 65.6 1.6 97.6 0 25.6-1.6 81.6-16 64-57.6-17.6-40-89.6-33.6-89.6-33.6h-131.2V312H560c57.6 0 140.8 17.6 142.4 91.2zM328 308.8c28.8-51.2 112-46.4 112-46.4h94.4v-16l102.4 27.2-99.2 28.8v-19.2h-91.2c-56-1.6-64 27.2-64 27.2-14.4 51.2 56 51.2 56 51.2l158.4 1.6v28.8h-176c-120-11.2-92.8-83.2-92.8-83.2z" fill="#34c6fd" p-id="1086"></path></svg>