<?xml version="1.0" standalone="no"?><!DOCTYPE svg PUBLIC "-//W3C//DTD SVG 1.1//EN" "http://www.w3.org/Graphics/SVG/1.1/DTD/svg11.dtd"><svg t="1506050249113" class="icon" style="" viewBox="0 0 1024 1024" version="1.1" xmlns="http://www.w3.org/2000/svg" p-id="17095" xmlns:xlink="http://www.w3.org/1999/xlink" width="128" height="128"><defs><style type="text/css"></style></defs><path d="M783.266909 33.373091H240.733091A130.141091 130.141091 0 0 0 111.988364 144.756364L33.512727 684.218182l-0.139636 176.267636a130.141091 130.141091 0 0 0 130.141091 130.141091h696.971636a130.141091 130.141091 0 0 0 130.141091-130.141091v-174.219636L912.011636 144.756364A130.141091 130.141091 0 0 0 783.266909 33.373091zM240.826182 119.389091h542.440727c21.829818 0.093091 40.401455 16.151273 43.659636 37.841454l77.265455 531.037091 13.777455-15.965091H106.030545l13.824 15.965091 77.265455-531.083636a44.404364 44.404364 0 0 1 43.706182-37.794909z m619.659636 785.221818H163.514182a44.218182 44.218182 0 0 1-44.125091-44.125091v-116.177454l-13.963636 13.963636h813.14909l-13.963636-13.963636v116.177454a44.218182 44.218182 0 0 1-44.125091 44.125091z" fill="#34c6fd" p-id="17096"></path><path d="M192.558545 802.443636h58.088728v58.042182H192.558545V802.443636z m116.13091 0H366.778182v58.042182H308.689455V802.443636z m116.177454 0h58.088727v58.042182H424.866909V802.443636z m116.177455 0h58.088727v58.042182h-58.088727V802.443636z m116.177454 0h58.088727v58.042182H657.221818V802.443636z m116.130909 0h58.088728v58.042182h-58.088728V802.443636z m-79.592727-453.818181l73.076364-72.704a5.818182 5.818182 0 0 0 0-8.238546l-73.169455-73.541818a5.818182 5.818182 0 0 0-9.821091 4.189091v44.450909H596.712727a29.044364 29.044364 0 0 0-24.203636 12.939636l-62.929455 94.440728-62.976-94.487273a28.951273 28.951273 0 0 0-24.203636-12.939637H335.36V198.749091a5.818182 5.818182 0 0 0-9.867636-4.049455L252.276364 267.729455a5.818182 5.818182 0 0 0 0 8.192l73.076363 73.076363a5.818182 5.818182 0 0 0 9.914182-4.049454v-44.125091h71.633455l67.770181 101.655272-67.770181 101.655273H306.269091a29.044364 29.044364 0 1 0 0 58.088727h116.177454a28.997818 28.997818 0 0 0 24.203637-12.939636l62.929454-94.440727 62.976 94.487273c5.399273 8.052364 14.429091 12.893091 24.157091 12.89309h116.177455a29.044364 29.044364 0 0 0 0-58.088727h-100.631273l-67.770182-101.655273 67.770182-101.655272h71.586909v43.752727a5.818182 5.818182 0 0 0 9.960727 4.049455z" fill="#34c6fd" p-id="17097"></path></svg>